<mxfile host="app.diagrams.net" modified="2023-10-31T09:40:46.219Z" agent="Mozilla/5.0 (Windows NT 10.0; Win64; x64) AppleWebKit/537.36 (KHTML, like Gecko) Chrome/118.0.0.0 Safari/537.36" etag="a2H3-wS0jZBjBesxdiur" version="22.0.8" type="google">
  <diagram name="Halaman-1" id="H3kLTuz11nZFVVZxn5bS">
    <mxGraphModel grid="1" page="1" gridSize="10" guides="1" tooltips="1" connect="1" arrows="1" fold="1" pageScale="1" pageWidth="827" pageHeight="1169" math="0" shadow="0">
      <root>
        <mxCell id="0" />
        <mxCell id="1" parent="0" />
        <mxCell id="BajUrXFmIZBp0bTx__w6-1" value="Buat Akun" style="ellipse;whiteSpace=wrap;html=1;" vertex="1" parent="1">
          <mxGeometry x="380" y="10" width="80" height="50" as="geometry" />
        </mxCell>
        <mxCell id="BajUrXFmIZBp0bTx__w6-2" value="PT" style="shape=umlActor;verticalLabelPosition=bottom;verticalAlign=top;html=1;outlineConnect=0;" vertex="1" parent="1">
          <mxGeometry x="80" y="80" width="30" height="60" as="geometry" />
        </mxCell>
        <mxCell id="BajUrXFmIZBp0bTx__w6-3" value="Mandor" style="shape=umlActor;verticalLabelPosition=bottom;verticalAlign=top;html=1;outlineConnect=0;" vertex="1" parent="1">
          <mxGeometry x="80" y="270" width="30" height="60" as="geometry" />
        </mxCell>
        <mxCell id="BajUrXFmIZBp0bTx__w6-4" value="Peternak" style="shape=umlActor;verticalLabelPosition=bottom;verticalAlign=top;html=1;outlineConnect=0;" vertex="1" parent="1">
          <mxGeometry x="80" y="640" width="30" height="60" as="geometry" />
        </mxCell>
        <mxCell id="BajUrXFmIZBp0bTx__w6-5" value="Admin" style="shape=umlActor;verticalLabelPosition=bottom;verticalAlign=top;html=1;outlineConnect=0;" vertex="1" parent="1">
          <mxGeometry x="730" y="70" width="30" height="60" as="geometry" />
        </mxCell>
        <mxCell id="BajUrXFmIZBp0bTx__w6-6" value="Login" style="ellipse;whiteSpace=wrap;html=1;" vertex="1" parent="1">
          <mxGeometry x="220" y="70" width="80" height="50" as="geometry" />
        </mxCell>
        <mxCell id="BajUrXFmIZBp0bTx__w6-7" value="Edit Dasboard" style="ellipse;whiteSpace=wrap;html=1;" vertex="1" parent="1">
          <mxGeometry x="380" y="120" width="80" height="50" as="geometry" />
        </mxCell>
        <mxCell id="BajUrXFmIZBp0bTx__w6-8" value="Lihat Dasboard" style="ellipse;whiteSpace=wrap;html=1;" vertex="1" parent="1">
          <mxGeometry x="380" y="180" width="80" height="50" as="geometry" />
        </mxCell>
        <mxCell id="BajUrXFmIZBp0bTx__w6-9" value="Lihat Jumlah Anggota" style="ellipse;whiteSpace=wrap;html=1;" vertex="1" parent="1">
          <mxGeometry x="380" y="240" width="80" height="50" as="geometry" />
        </mxCell>
        <mxCell id="BajUrXFmIZBp0bTx__w6-10" value="Terima Laporan" style="ellipse;whiteSpace=wrap;html=1;" vertex="1" parent="1">
          <mxGeometry x="380" y="300" width="80" height="50" as="geometry" />
        </mxCell>
        <mxCell id="BajUrXFmIZBp0bTx__w6-11" value="Analisis Data" style="ellipse;whiteSpace=wrap;html=1;" vertex="1" parent="1">
          <mxGeometry x="380" y="360" width="80" height="50" as="geometry" />
        </mxCell>
        <mxCell id="BajUrXFmIZBp0bTx__w6-12" value="Evaluasi Kinerja" style="ellipse;whiteSpace=wrap;html=1;" vertex="1" parent="1">
          <mxGeometry x="380" y="420" width="80" height="50" as="geometry" />
        </mxCell>
        <mxCell id="BajUrXFmIZBp0bTx__w6-13" value="Beri Arahan" style="ellipse;whiteSpace=wrap;html=1;" vertex="1" parent="1">
          <mxGeometry x="380" y="480" width="80" height="50" as="geometry" />
        </mxCell>
        <mxCell id="BajUrXFmIZBp0bTx__w6-14" value="Buat Jadwal" style="ellipse;whiteSpace=wrap;html=1;" vertex="1" parent="1">
          <mxGeometry x="380" y="540" width="80" height="50" as="geometry" />
        </mxCell>
        <mxCell id="BajUrXFmIZBp0bTx__w6-15" value="Lihat Jadwal" style="ellipse;whiteSpace=wrap;html=1;" vertex="1" parent="1">
          <mxGeometry x="380" y="600" width="80" height="50" as="geometry" />
        </mxCell>
        <mxCell id="BajUrXFmIZBp0bTx__w6-17" value="Pantau Persediaan" style="ellipse;whiteSpace=wrap;html=1;" vertex="1" parent="1">
          <mxGeometry x="380" y="660" width="80" height="50" as="geometry" />
        </mxCell>
        <mxCell id="BajUrXFmIZBp0bTx__w6-18" value="Pantau Operasional" style="ellipse;whiteSpace=wrap;html=1;" vertex="1" parent="1">
          <mxGeometry x="380" y="720" width="80" height="50" as="geometry" />
        </mxCell>
        <mxCell id="BajUrXFmIZBp0bTx__w6-19" value="Isi Persediaan" style="ellipse;whiteSpace=wrap;html=1;" vertex="1" parent="1">
          <mxGeometry x="380" y="780" width="80" height="50" as="geometry" />
        </mxCell>
        <mxCell id="BajUrXFmIZBp0bTx__w6-20" value="Forum Diskusi" style="ellipse;whiteSpace=wrap;html=1;" vertex="1" parent="1">
          <mxGeometry x="380" y="840" width="80" height="50" as="geometry" />
        </mxCell>
        <mxCell id="BajUrXFmIZBp0bTx__w6-21" value="Forum Komunikasi" style="ellipse;whiteSpace=wrap;html=1;" vertex="1" parent="1">
          <mxGeometry x="380" y="900" width="80" height="50" as="geometry" />
        </mxCell>
        <mxCell id="BajUrXFmIZBp0bTx__w6-22" value="Lihat Informasi" style="ellipse;whiteSpace=wrap;html=1;" vertex="1" parent="1">
          <mxGeometry x="380" y="960" width="80" height="50" as="geometry" />
        </mxCell>
        <mxCell id="BajUrXFmIZBp0bTx__w6-25" value="" style="endArrow=none;html=1;rounded=0;entryX=0;entryY=0.5;entryDx=0;entryDy=0;exitX=1;exitY=0.3333333333333333;exitDx=0;exitDy=0;exitPerimeter=0;" edge="1" parent="1" target="BajUrXFmIZBp0bTx__w6-1" source="BajUrXFmIZBp0bTx__w6-2">
          <mxGeometry width="50" height="50" relative="1" as="geometry">
            <mxPoint x="110" y="110" as="sourcePoint" />
            <mxPoint x="160" y="60" as="targetPoint" />
          </mxGeometry>
        </mxCell>
        <mxCell id="BajUrXFmIZBp0bTx__w6-26" value="" style="endArrow=none;html=1;rounded=0;entryX=0;entryY=0.5;entryDx=0;entryDy=0;exitX=1;exitY=0.3333333333333333;exitDx=0;exitDy=0;exitPerimeter=0;" edge="1" parent="1" target="BajUrXFmIZBp0bTx__w6-6" source="BajUrXFmIZBp0bTx__w6-2">
          <mxGeometry width="50" height="50" relative="1" as="geometry">
            <mxPoint x="110" y="110" as="sourcePoint" />
            <mxPoint x="390" y="45" as="targetPoint" />
          </mxGeometry>
        </mxCell>
        <mxCell id="BajUrXFmIZBp0bTx__w6-27" value="" style="endArrow=none;html=1;rounded=0;entryX=0;entryY=0.5;entryDx=0;entryDy=0;exitX=1;exitY=0.3333333333333333;exitDx=0;exitDy=0;exitPerimeter=0;" edge="1" parent="1" target="BajUrXFmIZBp0bTx__w6-7" source="BajUrXFmIZBp0bTx__w6-2">
          <mxGeometry width="50" height="50" relative="1" as="geometry">
            <mxPoint x="110" y="110" as="sourcePoint" />
            <mxPoint x="410" y="90" as="targetPoint" />
          </mxGeometry>
        </mxCell>
        <mxCell id="BajUrXFmIZBp0bTx__w6-28" value="" style="endArrow=none;html=1;rounded=0;entryX=0;entryY=0.5;entryDx=0;entryDy=0;exitX=1;exitY=0.3333333333333333;exitDx=0;exitDy=0;exitPerimeter=0;" edge="1" parent="1" target="BajUrXFmIZBp0bTx__w6-8" source="BajUrXFmIZBp0bTx__w6-2">
          <mxGeometry width="50" height="50" relative="1" as="geometry">
            <mxPoint x="110" y="110" as="sourcePoint" />
            <mxPoint x="400" y="55" as="targetPoint" />
          </mxGeometry>
        </mxCell>
        <mxCell id="BajUrXFmIZBp0bTx__w6-29" value="" style="endArrow=none;html=1;rounded=0;entryX=0;entryY=0.5;entryDx=0;entryDy=0;exitX=1;exitY=0.3333333333333333;exitDx=0;exitDy=0;exitPerimeter=0;" edge="1" parent="1" target="BajUrXFmIZBp0bTx__w6-9" source="BajUrXFmIZBp0bTx__w6-2">
          <mxGeometry width="50" height="50" relative="1" as="geometry">
            <mxPoint x="110" y="110" as="sourcePoint" />
            <mxPoint x="410" y="65" as="targetPoint" />
          </mxGeometry>
        </mxCell>
        <mxCell id="BajUrXFmIZBp0bTx__w6-30" value="" style="endArrow=none;html=1;rounded=0;entryX=0;entryY=0.5;entryDx=0;entryDy=0;exitX=1;exitY=0.3333333333333333;exitDx=0;exitDy=0;exitPerimeter=0;" edge="1" parent="1" target="BajUrXFmIZBp0bTx__w6-10" source="BajUrXFmIZBp0bTx__w6-2">
          <mxGeometry width="50" height="50" relative="1" as="geometry">
            <mxPoint x="110" y="110" as="sourcePoint" />
            <mxPoint x="420" y="75" as="targetPoint" />
          </mxGeometry>
        </mxCell>
        <mxCell id="BajUrXFmIZBp0bTx__w6-31" value="" style="endArrow=none;html=1;rounded=0;entryX=0;entryY=0.5;entryDx=0;entryDy=0;exitX=1;exitY=0.3333333333333333;exitDx=0;exitDy=0;exitPerimeter=0;" edge="1" parent="1" target="BajUrXFmIZBp0bTx__w6-11" source="BajUrXFmIZBp0bTx__w6-2">
          <mxGeometry width="50" height="50" relative="1" as="geometry">
            <mxPoint x="110" y="110" as="sourcePoint" />
            <mxPoint x="430" y="85" as="targetPoint" />
          </mxGeometry>
        </mxCell>
        <mxCell id="BajUrXFmIZBp0bTx__w6-32" value="" style="endArrow=none;html=1;rounded=0;entryX=0;entryY=0.5;entryDx=0;entryDy=0;exitX=1;exitY=0.3333333333333333;exitDx=0;exitDy=0;exitPerimeter=0;" edge="1" parent="1" target="BajUrXFmIZBp0bTx__w6-12" source="BajUrXFmIZBp0bTx__w6-2">
          <mxGeometry width="50" height="50" relative="1" as="geometry">
            <mxPoint x="110" y="110" as="sourcePoint" />
            <mxPoint x="440" y="95" as="targetPoint" />
          </mxGeometry>
        </mxCell>
        <mxCell id="BajUrXFmIZBp0bTx__w6-33" value="" style="endArrow=none;html=1;rounded=0;entryX=0;entryY=0.5;entryDx=0;entryDy=0;exitX=1;exitY=0.3333333333333333;exitDx=0;exitDy=0;exitPerimeter=0;" edge="1" parent="1" target="BajUrXFmIZBp0bTx__w6-13" source="BajUrXFmIZBp0bTx__w6-2">
          <mxGeometry width="50" height="50" relative="1" as="geometry">
            <mxPoint x="110" y="110" as="sourcePoint" />
            <mxPoint x="390" y="455" as="targetPoint" />
          </mxGeometry>
        </mxCell>
        <mxCell id="BajUrXFmIZBp0bTx__w6-34" value="" style="endArrow=none;html=1;rounded=0;entryX=0;entryY=0.5;entryDx=0;entryDy=0;exitX=1;exitY=0.3333333333333333;exitDx=0;exitDy=0;exitPerimeter=0;" edge="1" parent="1" target="BajUrXFmIZBp0bTx__w6-20" source="BajUrXFmIZBp0bTx__w6-2">
          <mxGeometry width="50" height="50" relative="1" as="geometry">
            <mxPoint x="110" y="110" as="sourcePoint" />
            <mxPoint x="400" y="465" as="targetPoint" />
          </mxGeometry>
        </mxCell>
        <mxCell id="BajUrXFmIZBp0bTx__w6-35" value="" style="endArrow=none;html=1;rounded=0;entryX=0;entryY=0.5;entryDx=0;entryDy=0;exitX=1;exitY=0.3333333333333333;exitDx=0;exitDy=0;exitPerimeter=0;" edge="1" parent="1" target="BajUrXFmIZBp0bTx__w6-21" source="BajUrXFmIZBp0bTx__w6-2">
          <mxGeometry width="50" height="50" relative="1" as="geometry">
            <mxPoint x="110" y="110" as="sourcePoint" />
            <mxPoint x="390" y="875" as="targetPoint" />
          </mxGeometry>
        </mxCell>
        <mxCell id="1M9QhqLZfWZT7avfSer1-5" value="" style="endArrow=none;html=1;rounded=0;entryX=0;entryY=0.5;entryDx=0;entryDy=0;exitX=1;exitY=0.3333333333333333;exitDx=0;exitDy=0;exitPerimeter=0;" edge="1" parent="1" target="BajUrXFmIZBp0bTx__w6-1" source="BajUrXFmIZBp0bTx__w6-3">
          <mxGeometry width="50" height="50" relative="1" as="geometry">
            <mxPoint x="110" y="270" as="sourcePoint" />
            <mxPoint x="380" y="470" as="targetPoint" />
            <Array as="points" />
          </mxGeometry>
        </mxCell>
        <mxCell id="1M9QhqLZfWZT7avfSer1-6" value="" style="endArrow=none;html=1;rounded=0;entryX=0;entryY=0.5;entryDx=0;entryDy=0;exitX=1;exitY=0.3333333333333333;exitDx=0;exitDy=0;exitPerimeter=0;" edge="1" parent="1" target="BajUrXFmIZBp0bTx__w6-6" source="BajUrXFmIZBp0bTx__w6-3">
          <mxGeometry width="50" height="50" relative="1" as="geometry">
            <mxPoint x="110" y="270" as="sourcePoint" />
            <mxPoint x="400" y="225" as="targetPoint" />
          </mxGeometry>
        </mxCell>
        <mxCell id="1M9QhqLZfWZT7avfSer1-7" value="" style="endArrow=none;html=1;rounded=0;entryX=0;entryY=0.5;entryDx=0;entryDy=0;exitX=1;exitY=0.3333333333333333;exitDx=0;exitDy=0;exitPerimeter=0;" edge="1" parent="1" target="BajUrXFmIZBp0bTx__w6-8" source="BajUrXFmIZBp0bTx__w6-3">
          <mxGeometry width="50" height="50" relative="1" as="geometry">
            <mxPoint x="110" y="270" as="sourcePoint" />
            <mxPoint x="290" y="105" as="targetPoint" />
          </mxGeometry>
        </mxCell>
        <mxCell id="1M9QhqLZfWZT7avfSer1-8" value="" style="endArrow=none;html=1;rounded=0;entryX=0;entryY=0.5;entryDx=0;entryDy=0;exitX=1;exitY=0.3333333333333333;exitDx=0;exitDy=0;exitPerimeter=0;" edge="1" parent="1" target="BajUrXFmIZBp0bTx__w6-7" source="BajUrXFmIZBp0bTx__w6-3">
          <mxGeometry width="50" height="50" relative="1" as="geometry">
            <mxPoint x="110" y="270" as="sourcePoint" />
            <mxPoint x="390" y="215" as="targetPoint" />
          </mxGeometry>
        </mxCell>
        <mxCell id="1M9QhqLZfWZT7avfSer1-9" value="" style="endArrow=none;html=1;rounded=0;entryX=0;entryY=0.5;entryDx=0;entryDy=0;exitX=1;exitY=0.3333333333333333;exitDx=0;exitDy=0;exitPerimeter=0;" edge="1" parent="1" target="BajUrXFmIZBp0bTx__w6-10" source="BajUrXFmIZBp0bTx__w6-3">
          <mxGeometry width="50" height="50" relative="1" as="geometry">
            <mxPoint x="110" y="270" as="sourcePoint" />
            <mxPoint x="400" y="225" as="targetPoint" />
          </mxGeometry>
        </mxCell>
        <mxCell id="1M9QhqLZfWZT7avfSer1-10" value="" style="endArrow=none;html=1;rounded=0;entryX=0;entryY=0.5;entryDx=0;entryDy=0;exitX=1;exitY=0.3333333333333333;exitDx=0;exitDy=0;exitPerimeter=0;" edge="1" parent="1" target="BajUrXFmIZBp0bTx__w6-9" source="BajUrXFmIZBp0bTx__w6-3">
          <mxGeometry width="50" height="50" relative="1" as="geometry">
            <mxPoint x="110" y="270" as="sourcePoint" />
            <mxPoint x="410" y="235" as="targetPoint" />
          </mxGeometry>
        </mxCell>
        <mxCell id="1M9QhqLZfWZT7avfSer1-11" value="" style="endArrow=none;html=1;rounded=0;entryX=0;entryY=0.5;entryDx=0;entryDy=0;exitX=1;exitY=0.3333333333333333;exitDx=0;exitDy=0;exitPerimeter=0;" edge="1" parent="1" target="BajUrXFmIZBp0bTx__w6-11" source="BajUrXFmIZBp0bTx__w6-3">
          <mxGeometry width="50" height="50" relative="1" as="geometry">
            <mxPoint x="110" y="270" as="sourcePoint" />
            <mxPoint x="420" y="245" as="targetPoint" />
          </mxGeometry>
        </mxCell>
        <mxCell id="1M9QhqLZfWZT7avfSer1-12" value="" style="endArrow=none;html=1;rounded=0;entryX=0;entryY=0.5;entryDx=0;entryDy=0;exitX=1;exitY=0.3333333333333333;exitDx=0;exitDy=0;exitPerimeter=0;" edge="1" parent="1" target="BajUrXFmIZBp0bTx__w6-14" source="BajUrXFmIZBp0bTx__w6-3">
          <mxGeometry width="50" height="50" relative="1" as="geometry">
            <mxPoint x="110" y="270" as="sourcePoint" />
            <mxPoint x="430" y="255" as="targetPoint" />
          </mxGeometry>
        </mxCell>
        <mxCell id="1M9QhqLZfWZT7avfSer1-13" value="" style="endArrow=none;html=1;rounded=0;entryX=0;entryY=0.5;entryDx=0;entryDy=0;exitX=1;exitY=0.3333333333333333;exitDx=0;exitDy=0;exitPerimeter=0;" edge="1" parent="1" target="BajUrXFmIZBp0bTx__w6-15" source="BajUrXFmIZBp0bTx__w6-3">
          <mxGeometry width="50" height="50" relative="1" as="geometry">
            <mxPoint x="110" y="270" as="sourcePoint" />
            <mxPoint x="440" y="265" as="targetPoint" />
          </mxGeometry>
        </mxCell>
        <mxCell id="1M9QhqLZfWZT7avfSer1-14" value="" style="endArrow=none;html=1;rounded=0;entryX=0;entryY=0.5;entryDx=0;entryDy=0;exitX=1;exitY=0.3333333333333333;exitDx=0;exitDy=0;exitPerimeter=0;" edge="1" parent="1" target="BajUrXFmIZBp0bTx__w6-17" source="BajUrXFmIZBp0bTx__w6-3">
          <mxGeometry width="50" height="50" relative="1" as="geometry">
            <mxPoint x="110" y="270" as="sourcePoint" />
            <mxPoint x="450" y="275" as="targetPoint" />
          </mxGeometry>
        </mxCell>
        <mxCell id="1M9QhqLZfWZT7avfSer1-15" value="" style="endArrow=none;html=1;rounded=0;entryX=0;entryY=0.5;entryDx=0;entryDy=0;exitX=1;exitY=0.3333333333333333;exitDx=0;exitDy=0;exitPerimeter=0;" edge="1" parent="1" target="BajUrXFmIZBp0bTx__w6-18" source="BajUrXFmIZBp0bTx__w6-3">
          <mxGeometry width="50" height="50" relative="1" as="geometry">
            <mxPoint x="110" y="270" as="sourcePoint" />
            <mxPoint x="390" y="695" as="targetPoint" />
          </mxGeometry>
        </mxCell>
        <mxCell id="1M9QhqLZfWZT7avfSer1-16" value="" style="endArrow=none;html=1;rounded=0;entryX=0;entryY=0.5;entryDx=0;entryDy=0;exitX=1;exitY=0.3333333333333333;exitDx=0;exitDy=0;exitPerimeter=0;" edge="1" parent="1" target="BajUrXFmIZBp0bTx__w6-20" source="BajUrXFmIZBp0bTx__w6-3">
          <mxGeometry width="50" height="50" relative="1" as="geometry">
            <mxPoint x="110" y="270" as="sourcePoint" />
            <mxPoint x="390" y="755" as="targetPoint" />
          </mxGeometry>
        </mxCell>
        <mxCell id="1M9QhqLZfWZT7avfSer1-17" value="" style="endArrow=none;html=1;rounded=0;entryX=0;entryY=0.5;entryDx=0;entryDy=0;exitX=1;exitY=0.3333333333333333;exitDx=0;exitDy=0;exitPerimeter=0;" edge="1" parent="1" target="BajUrXFmIZBp0bTx__w6-21" source="BajUrXFmIZBp0bTx__w6-3">
          <mxGeometry width="50" height="50" relative="1" as="geometry">
            <mxPoint x="110" y="270" as="sourcePoint" />
            <mxPoint x="390" y="875" as="targetPoint" />
          </mxGeometry>
        </mxCell>
        <mxCell id="1M9QhqLZfWZT7avfSer1-18" value="" style="endArrow=none;html=1;rounded=0;entryX=0;entryY=0.5;entryDx=0;entryDy=0;exitX=1;exitY=0.3333333333333333;exitDx=0;exitDy=0;exitPerimeter=0;" edge="1" parent="1" target="BajUrXFmIZBp0bTx__w6-1" source="BajUrXFmIZBp0bTx__w6-4">
          <mxGeometry width="50" height="50" relative="1" as="geometry">
            <mxPoint x="110" y="670" as="sourcePoint" />
            <mxPoint x="370" y="620" as="targetPoint" />
            <Array as="points" />
          </mxGeometry>
        </mxCell>
        <mxCell id="1M9QhqLZfWZT7avfSer1-19" value="" style="endArrow=none;html=1;rounded=0;entryX=0;entryY=0.5;entryDx=0;entryDy=0;exitX=1;exitY=0.3333333333333333;exitDx=0;exitDy=0;exitPerimeter=0;" edge="1" parent="1" target="BajUrXFmIZBp0bTx__w6-6" source="BajUrXFmIZBp0bTx__w6-4">
          <mxGeometry width="50" height="50" relative="1" as="geometry">
            <mxPoint x="110" y="670" as="sourcePoint" />
            <mxPoint x="400" y="55" as="targetPoint" />
          </mxGeometry>
        </mxCell>
        <mxCell id="1M9QhqLZfWZT7avfSer1-20" value="" style="endArrow=none;html=1;rounded=0;entryX=0;entryY=0.5;entryDx=0;entryDy=0;exitX=1;exitY=0.3333333333333333;exitDx=0;exitDy=0;exitPerimeter=0;" edge="1" parent="1" target="BajUrXFmIZBp0bTx__w6-8" source="BajUrXFmIZBp0bTx__w6-4">
          <mxGeometry width="50" height="50" relative="1" as="geometry">
            <mxPoint x="110" y="670" as="sourcePoint" />
            <mxPoint x="290" y="105" as="targetPoint" />
          </mxGeometry>
        </mxCell>
        <mxCell id="1M9QhqLZfWZT7avfSer1-21" value="" style="endArrow=none;html=1;rounded=0;entryX=0;entryY=0.5;entryDx=0;entryDy=0;exitX=1;exitY=0.3333333333333333;exitDx=0;exitDy=0;exitPerimeter=0;" edge="1" parent="1" target="BajUrXFmIZBp0bTx__w6-10" source="BajUrXFmIZBp0bTx__w6-4">
          <mxGeometry width="50" height="50" relative="1" as="geometry">
            <mxPoint x="110" y="670" as="sourcePoint" />
            <mxPoint x="390" y="215" as="targetPoint" />
          </mxGeometry>
        </mxCell>
        <mxCell id="1M9QhqLZfWZT7avfSer1-22" value="" style="endArrow=none;html=1;rounded=0;entryX=0;entryY=0.5;entryDx=0;entryDy=0;exitX=1;exitY=0.3333333333333333;exitDx=0;exitDy=0;exitPerimeter=0;" edge="1" parent="1" target="BajUrXFmIZBp0bTx__w6-14" source="BajUrXFmIZBp0bTx__w6-4">
          <mxGeometry width="50" height="50" relative="1" as="geometry">
            <mxPoint x="110" y="670" as="sourcePoint" />
            <mxPoint x="390" y="335" as="targetPoint" />
          </mxGeometry>
        </mxCell>
        <mxCell id="1M9QhqLZfWZT7avfSer1-23" value="" style="endArrow=none;html=1;rounded=0;entryX=0;entryY=0.5;entryDx=0;entryDy=0;exitX=1;exitY=0.3333333333333333;exitDx=0;exitDy=0;exitPerimeter=0;" edge="1" parent="1" target="BajUrXFmIZBp0bTx__w6-15" source="BajUrXFmIZBp0bTx__w6-4">
          <mxGeometry width="50" height="50" relative="1" as="geometry">
            <mxPoint x="110" y="670" as="sourcePoint" />
            <mxPoint x="390" y="575" as="targetPoint" />
          </mxGeometry>
        </mxCell>
        <mxCell id="1M9QhqLZfWZT7avfSer1-24" value="" style="endArrow=none;html=1;rounded=0;entryX=0;entryY=0.5;entryDx=0;entryDy=0;exitX=1;exitY=0.3333333333333333;exitDx=0;exitDy=0;exitPerimeter=0;" edge="1" parent="1" target="BajUrXFmIZBp0bTx__w6-11" source="BajUrXFmIZBp0bTx__w6-4">
          <mxGeometry width="50" height="50" relative="1" as="geometry">
            <mxPoint x="110" y="670" as="sourcePoint" />
            <mxPoint x="390" y="575" as="targetPoint" />
          </mxGeometry>
        </mxCell>
        <mxCell id="1M9QhqLZfWZT7avfSer1-25" value="" style="endArrow=none;html=1;rounded=0;entryX=0;entryY=0.5;entryDx=0;entryDy=0;exitX=1;exitY=0.3333333333333333;exitDx=0;exitDy=0;exitPerimeter=0;" edge="1" parent="1" target="BajUrXFmIZBp0bTx__w6-19" source="BajUrXFmIZBp0bTx__w6-4">
          <mxGeometry width="50" height="50" relative="1" as="geometry">
            <mxPoint x="110" y="670" as="sourcePoint" />
            <mxPoint x="400" y="585" as="targetPoint" />
          </mxGeometry>
        </mxCell>
        <mxCell id="1M9QhqLZfWZT7avfSer1-26" value="" style="endArrow=none;html=1;rounded=0;entryX=0;entryY=0.5;entryDx=0;entryDy=0;exitX=1;exitY=0.3333333333333333;exitDx=0;exitDy=0;exitPerimeter=0;" edge="1" parent="1" target="BajUrXFmIZBp0bTx__w6-20" source="BajUrXFmIZBp0bTx__w6-4">
          <mxGeometry width="50" height="50" relative="1" as="geometry">
            <mxPoint x="110" y="670" as="sourcePoint" />
            <mxPoint x="390" y="815" as="targetPoint" />
          </mxGeometry>
        </mxCell>
        <mxCell id="1M9QhqLZfWZT7avfSer1-27" value="" style="endArrow=none;html=1;rounded=0;entryX=0;entryY=0.5;entryDx=0;entryDy=0;exitX=1;exitY=0.3333333333333333;exitDx=0;exitDy=0;exitPerimeter=0;" edge="1" parent="1" target="BajUrXFmIZBp0bTx__w6-21" source="BajUrXFmIZBp0bTx__w6-4">
          <mxGeometry width="50" height="50" relative="1" as="geometry">
            <mxPoint x="110" y="670" as="sourcePoint" />
            <mxPoint x="390" y="875" as="targetPoint" />
          </mxGeometry>
        </mxCell>
        <mxCell id="1M9QhqLZfWZT7avfSer1-28" value="" style="endArrow=none;html=1;rounded=0;entryX=1;entryY=0.5;entryDx=0;entryDy=0;exitX=0;exitY=0.3333333333333333;exitDx=0;exitDy=0;exitPerimeter=0;" edge="1" parent="1" target="BajUrXFmIZBp0bTx__w6-1" source="BajUrXFmIZBp0bTx__w6-5">
          <mxGeometry width="50" height="50" relative="1" as="geometry">
            <mxPoint x="730" y="110" as="sourcePoint" />
            <mxPoint x="620" y="785" as="targetPoint" />
          </mxGeometry>
        </mxCell>
        <mxCell id="1M9QhqLZfWZT7avfSer1-29" value="" style="endArrow=none;html=1;rounded=0;entryX=1;entryY=0.5;entryDx=0;entryDy=0;exitX=0;exitY=0.3333333333333333;exitDx=0;exitDy=0;exitPerimeter=0;" edge="1" parent="1" target="BajUrXFmIZBp0bTx__w6-6" source="BajUrXFmIZBp0bTx__w6-5">
          <mxGeometry width="50" height="50" relative="1" as="geometry">
            <mxPoint x="730" y="110" as="sourcePoint" />
            <mxPoint x="470" y="45" as="targetPoint" />
          </mxGeometry>
        </mxCell>
        <mxCell id="1M9QhqLZfWZT7avfSer1-30" value="" style="endArrow=none;html=1;rounded=0;entryX=1;entryY=1;entryDx=0;entryDy=0;exitX=0;exitY=0.3333333333333333;exitDx=0;exitDy=0;exitPerimeter=0;" edge="1" parent="1" target="BajUrXFmIZBp0bTx__w6-7" source="BajUrXFmIZBp0bTx__w6-5">
          <mxGeometry width="50" height="50" relative="1" as="geometry">
            <mxPoint x="730" y="110" as="sourcePoint" />
            <mxPoint x="370" y="105" as="targetPoint" />
          </mxGeometry>
        </mxCell>
        <mxCell id="1M9QhqLZfWZT7avfSer1-31" value="" style="endArrow=none;html=1;rounded=0;entryX=1;entryY=0.5;entryDx=0;entryDy=0;exitX=0;exitY=0.3333333333333333;exitDx=0;exitDy=0;exitPerimeter=0;" edge="1" parent="1" target="BajUrXFmIZBp0bTx__w6-8" source="BajUrXFmIZBp0bTx__w6-5">
          <mxGeometry width="50" height="50" relative="1" as="geometry">
            <mxPoint x="730" y="110" as="sourcePoint" />
            <mxPoint x="470" y="155" as="targetPoint" />
          </mxGeometry>
        </mxCell>
        <mxCell id="1M9QhqLZfWZT7avfSer1-32" value="" style="endArrow=none;html=1;rounded=0;entryX=1;entryY=0.5;entryDx=0;entryDy=0;exitX=0;exitY=0.3333333333333333;exitDx=0;exitDy=0;exitPerimeter=0;" edge="1" parent="1" target="BajUrXFmIZBp0bTx__w6-9" source="BajUrXFmIZBp0bTx__w6-5">
          <mxGeometry width="50" height="50" relative="1" as="geometry">
            <mxPoint x="730" y="110" as="sourcePoint" />
            <mxPoint x="470" y="215" as="targetPoint" />
          </mxGeometry>
        </mxCell>
        <mxCell id="1M9QhqLZfWZT7avfSer1-33" value="" style="endArrow=none;html=1;rounded=0;entryX=1;entryY=0.5;entryDx=0;entryDy=0;exitX=0;exitY=0.3333333333333333;exitDx=0;exitDy=0;exitPerimeter=0;" edge="1" parent="1" target="BajUrXFmIZBp0bTx__w6-10" source="BajUrXFmIZBp0bTx__w6-5">
          <mxGeometry width="50" height="50" relative="1" as="geometry">
            <mxPoint x="730" y="110" as="sourcePoint" />
            <mxPoint x="480" y="225" as="targetPoint" />
          </mxGeometry>
        </mxCell>
        <mxCell id="1M9QhqLZfWZT7avfSer1-34" value="" style="endArrow=none;html=1;rounded=0;entryX=1;entryY=0.5;entryDx=0;entryDy=0;exitX=0;exitY=0.3333333333333333;exitDx=0;exitDy=0;exitPerimeter=0;" edge="1" parent="1" target="BajUrXFmIZBp0bTx__w6-22" source="BajUrXFmIZBp0bTx__w6-5">
          <mxGeometry width="50" height="50" relative="1" as="geometry">
            <mxPoint x="730" y="110" as="sourcePoint" />
            <mxPoint x="470" y="335" as="targetPoint" />
          </mxGeometry>
        </mxCell>
        <mxCell id="1M9QhqLZfWZT7avfSer1-35" value="Lihat Jumlah Pengguna" style="ellipse;whiteSpace=wrap;html=1;" vertex="1" parent="1">
          <mxGeometry x="380" y="1020" width="80" height="50" as="geometry" />
        </mxCell>
        <mxCell id="1M9QhqLZfWZT7avfSer1-37" value="" style="endArrow=none;html=1;rounded=0;entryX=1;entryY=0.5;entryDx=0;entryDy=0;exitX=0;exitY=0.3333333333333333;exitDx=0;exitDy=0;exitPerimeter=0;" edge="1" parent="1" target="1M9QhqLZfWZT7avfSer1-35" source="BajUrXFmIZBp0bTx__w6-5">
          <mxGeometry width="50" height="50" relative="1" as="geometry">
            <mxPoint x="730" y="110" as="sourcePoint" />
            <mxPoint x="470" y="995" as="targetPoint" />
          </mxGeometry>
        </mxCell>
        <mxCell id="1M9QhqLZfWZT7avfSer1-39" value="" style="endArrow=none;dashed=1;html=1;rounded=0;entryX=0.5;entryY=1;entryDx=0;entryDy=0;exitX=0;exitY=0.5;exitDx=0;exitDy=0;" edge="1" parent="1" source="BajUrXFmIZBp0bTx__w6-12" target="BajUrXFmIZBp0bTx__w6-6">
          <mxGeometry width="50" height="50" relative="1" as="geometry">
            <mxPoint x="230" y="720" as="sourcePoint" />
            <mxPoint x="280" y="670" as="targetPoint" />
          </mxGeometry>
        </mxCell>
        <mxCell id="1M9QhqLZfWZT7avfSer1-40" value="" style="endArrow=none;dashed=1;html=1;rounded=0;entryX=0.5;entryY=1;entryDx=0;entryDy=0;exitX=0;exitY=0.5;exitDx=0;exitDy=0;" edge="1" parent="1" source="BajUrXFmIZBp0bTx__w6-7" target="BajUrXFmIZBp0bTx__w6-6">
          <mxGeometry width="50" height="50" relative="1" as="geometry">
            <mxPoint x="390" y="455" as="sourcePoint" />
            <mxPoint x="330" y="130" as="targetPoint" />
          </mxGeometry>
        </mxCell>
        <mxCell id="1M9QhqLZfWZT7avfSer1-41" value="" style="endArrow=none;dashed=1;html=1;rounded=0;exitX=0;exitY=0.5;exitDx=0;exitDy=0;entryX=0.5;entryY=1;entryDx=0;entryDy=0;" edge="1" parent="1" source="BajUrXFmIZBp0bTx__w6-8" target="BajUrXFmIZBp0bTx__w6-6">
          <mxGeometry width="50" height="50" relative="1" as="geometry">
            <mxPoint x="400" y="465" as="sourcePoint" />
            <mxPoint x="320" y="120" as="targetPoint" />
          </mxGeometry>
        </mxCell>
        <mxCell id="1M9QhqLZfWZT7avfSer1-42" value="" style="endArrow=none;dashed=1;html=1;rounded=0;exitX=0;exitY=0.5;exitDx=0;exitDy=0;entryX=0.5;entryY=1;entryDx=0;entryDy=0;" edge="1" parent="1" source="BajUrXFmIZBp0bTx__w6-9" target="BajUrXFmIZBp0bTx__w6-6">
          <mxGeometry width="50" height="50" relative="1" as="geometry">
            <mxPoint x="410" y="475" as="sourcePoint" />
            <mxPoint x="320" y="120" as="targetPoint" />
          </mxGeometry>
        </mxCell>
        <mxCell id="1M9QhqLZfWZT7avfSer1-43" value="" style="endArrow=none;dashed=1;html=1;rounded=0;exitX=0;exitY=0.5;exitDx=0;exitDy=0;entryX=0.5;entryY=1;entryDx=0;entryDy=0;" edge="1" parent="1" source="BajUrXFmIZBp0bTx__w6-11" target="BajUrXFmIZBp0bTx__w6-6">
          <mxGeometry width="50" height="50" relative="1" as="geometry">
            <mxPoint x="420" y="485" as="sourcePoint" />
            <mxPoint x="320" y="120" as="targetPoint" />
          </mxGeometry>
        </mxCell>
        <mxCell id="1M9QhqLZfWZT7avfSer1-44" value="" style="endArrow=none;dashed=1;html=1;rounded=0;entryX=0.5;entryY=1;entryDx=0;entryDy=0;" edge="1" parent="1" target="BajUrXFmIZBp0bTx__w6-6">
          <mxGeometry width="50" height="50" relative="1" as="geometry">
            <mxPoint x="380" y="320" as="sourcePoint" />
            <mxPoint x="370" y="170" as="targetPoint" />
          </mxGeometry>
        </mxCell>
        <mxCell id="1M9QhqLZfWZT7avfSer1-45" value="" style="endArrow=none;dashed=1;html=1;rounded=0;exitX=0;exitY=0.5;exitDx=0;exitDy=0;entryX=0.5;entryY=1;entryDx=0;entryDy=0;" edge="1" parent="1" source="BajUrXFmIZBp0bTx__w6-13" target="BajUrXFmIZBp0bTx__w6-6">
          <mxGeometry width="50" height="50" relative="1" as="geometry">
            <mxPoint x="440" y="505" as="sourcePoint" />
            <mxPoint x="320" y="120" as="targetPoint" />
          </mxGeometry>
        </mxCell>
        <mxCell id="1M9QhqLZfWZT7avfSer1-46" value="" style="endArrow=none;dashed=1;html=1;rounded=0;entryX=0.5;entryY=1;entryDx=0;entryDy=0;exitX=0;exitY=0.5;exitDx=0;exitDy=0;" edge="1" parent="1" source="BajUrXFmIZBp0bTx__w6-14" target="BajUrXFmIZBp0bTx__w6-6">
          <mxGeometry width="50" height="50" relative="1" as="geometry">
            <mxPoint x="380" y="560" as="sourcePoint" />
            <mxPoint x="390" y="190" as="targetPoint" />
          </mxGeometry>
        </mxCell>
        <mxCell id="1M9QhqLZfWZT7avfSer1-47" value="" style="endArrow=none;dashed=1;html=1;rounded=0;entryX=0.5;entryY=1;entryDx=0;entryDy=0;exitX=0;exitY=0.5;exitDx=0;exitDy=0;" edge="1" parent="1" source="BajUrXFmIZBp0bTx__w6-18" target="BajUrXFmIZBp0bTx__w6-6">
          <mxGeometry width="50" height="50" relative="1" as="geometry">
            <mxPoint x="390" y="575" as="sourcePoint" />
            <mxPoint x="330" y="130" as="targetPoint" />
          </mxGeometry>
        </mxCell>
        <mxCell id="1M9QhqLZfWZT7avfSer1-48" value="" style="endArrow=none;dashed=1;html=1;rounded=0;entryX=0.5;entryY=1;entryDx=0;entryDy=0;exitX=0;exitY=0.5;exitDx=0;exitDy=0;" edge="1" parent="1" source="BajUrXFmIZBp0bTx__w6-15" target="BajUrXFmIZBp0bTx__w6-6">
          <mxGeometry width="50" height="50" relative="1" as="geometry">
            <mxPoint x="390" y="755" as="sourcePoint" />
            <mxPoint x="330" y="130" as="targetPoint" />
          </mxGeometry>
        </mxCell>
        <mxCell id="1M9QhqLZfWZT7avfSer1-49" value="" style="endArrow=none;dashed=1;html=1;rounded=0;entryX=0.5;entryY=1;entryDx=0;entryDy=0;exitX=0;exitY=0.5;exitDx=0;exitDy=0;" edge="1" parent="1" source="BajUrXFmIZBp0bTx__w6-17" target="BajUrXFmIZBp0bTx__w6-6">
          <mxGeometry width="50" height="50" relative="1" as="geometry">
            <mxPoint x="400" y="765" as="sourcePoint" />
            <mxPoint x="340" y="140" as="targetPoint" />
          </mxGeometry>
        </mxCell>
        <mxCell id="1M9QhqLZfWZT7avfSer1-51" value="" style="endArrow=none;dashed=1;html=1;rounded=0;entryX=0.5;entryY=1;entryDx=0;entryDy=0;exitX=0;exitY=0.5;exitDx=0;exitDy=0;" edge="1" parent="1" source="BajUrXFmIZBp0bTx__w6-19" target="BajUrXFmIZBp0bTx__w6-6">
          <mxGeometry width="50" height="50" relative="1" as="geometry">
            <mxPoint x="390" y="755" as="sourcePoint" />
            <mxPoint x="290" y="130" as="targetPoint" />
          </mxGeometry>
        </mxCell>
        <mxCell id="1M9QhqLZfWZT7avfSer1-52" value="" style="endArrow=none;dashed=1;html=1;rounded=0;entryX=0.5;entryY=1;entryDx=0;entryDy=0;exitX=0;exitY=0.5;exitDx=0;exitDy=0;" edge="1" parent="1" source="BajUrXFmIZBp0bTx__w6-20" target="BajUrXFmIZBp0bTx__w6-6">
          <mxGeometry width="50" height="50" relative="1" as="geometry">
            <mxPoint x="400" y="765" as="sourcePoint" />
            <mxPoint x="300" y="140" as="targetPoint" />
          </mxGeometry>
        </mxCell>
        <mxCell id="1M9QhqLZfWZT7avfSer1-53" value="" style="endArrow=none;dashed=1;html=1;rounded=0;entryX=0.5;entryY=1;entryDx=0;entryDy=0;exitX=0;exitY=0.5;exitDx=0;exitDy=0;" edge="1" parent="1" source="BajUrXFmIZBp0bTx__w6-21" target="BajUrXFmIZBp0bTx__w6-6">
          <mxGeometry width="50" height="50" relative="1" as="geometry">
            <mxPoint x="410" y="775" as="sourcePoint" />
            <mxPoint x="310" y="150" as="targetPoint" />
          </mxGeometry>
        </mxCell>
        <mxCell id="1M9QhqLZfWZT7avfSer1-54" value="" style="endArrow=none;dashed=1;html=1;rounded=0;entryX=0.5;entryY=1;entryDx=0;entryDy=0;exitX=0;exitY=0.5;exitDx=0;exitDy=0;" edge="1" parent="1" source="BajUrXFmIZBp0bTx__w6-22" target="BajUrXFmIZBp0bTx__w6-6">
          <mxGeometry width="50" height="50" relative="1" as="geometry">
            <mxPoint x="420" y="785" as="sourcePoint" />
            <mxPoint x="320" y="160" as="targetPoint" />
          </mxGeometry>
        </mxCell>
        <mxCell id="1M9QhqLZfWZT7avfSer1-55" value="" style="endArrow=none;dashed=1;html=1;rounded=0;entryX=0.5;entryY=1;entryDx=0;entryDy=0;exitX=0;exitY=0.5;exitDx=0;exitDy=0;" edge="1" parent="1" source="1M9QhqLZfWZT7avfSer1-35" target="BajUrXFmIZBp0bTx__w6-6">
          <mxGeometry width="50" height="50" relative="1" as="geometry">
            <mxPoint x="430" y="795" as="sourcePoint" />
            <mxPoint x="330" y="170" as="targetPoint" />
          </mxGeometry>
        </mxCell>
        <mxCell id="1M9QhqLZfWZT7avfSer1-56" value="Lihat PT" style="ellipse;whiteSpace=wrap;html=1;" vertex="1" parent="1">
          <mxGeometry x="560" y="2" width="80" height="50" as="geometry" />
        </mxCell>
        <mxCell id="1M9QhqLZfWZT7avfSer1-57" value="Lihat Mandor" style="ellipse;whiteSpace=wrap;html=1;" vertex="1" parent="1">
          <mxGeometry x="450" y="50" width="70" height="40" as="geometry" />
        </mxCell>
        <mxCell id="1M9QhqLZfWZT7avfSer1-58" value="Lihat Peternak" style="ellipse;whiteSpace=wrap;html=1;" vertex="1" parent="1">
          <mxGeometry x="460" y="104" width="71" height="40" as="geometry" />
        </mxCell>
        <mxCell id="1M9QhqLZfWZT7avfSer1-59" value="" style="endArrow=none;html=1;rounded=0;entryX=1;entryY=0.5;entryDx=0;entryDy=0;exitX=0;exitY=0.3333333333333333;exitDx=0;exitDy=0;exitPerimeter=0;" edge="1" parent="1" target="1M9QhqLZfWZT7avfSer1-56" source="BajUrXFmIZBp0bTx__w6-5">
          <mxGeometry width="50" height="50" relative="1" as="geometry">
            <mxPoint x="730" y="110" as="sourcePoint" />
            <mxPoint x="470" y="335" as="targetPoint" />
          </mxGeometry>
        </mxCell>
        <mxCell id="1M9QhqLZfWZT7avfSer1-60" value="" style="endArrow=none;html=1;rounded=0;entryX=1;entryY=0.5;entryDx=0;entryDy=0;exitX=0;exitY=0.3333333333333333;exitDx=0;exitDy=0;exitPerimeter=0;" edge="1" parent="1" target="1M9QhqLZfWZT7avfSer1-57" source="BajUrXFmIZBp0bTx__w6-5">
          <mxGeometry width="50" height="50" relative="1" as="geometry">
            <mxPoint x="730" y="110" as="sourcePoint" />
            <mxPoint x="610" y="315" as="targetPoint" />
          </mxGeometry>
        </mxCell>
        <mxCell id="1M9QhqLZfWZT7avfSer1-61" value="" style="endArrow=none;html=1;rounded=0;entryX=1;entryY=0.5;entryDx=0;entryDy=0;exitX=0;exitY=0.3333333333333333;exitDx=0;exitDy=0;exitPerimeter=0;" edge="1" parent="1" target="1M9QhqLZfWZT7avfSer1-58" source="BajUrXFmIZBp0bTx__w6-5">
          <mxGeometry width="50" height="50" relative="1" as="geometry">
            <mxPoint x="730" y="110" as="sourcePoint" />
            <mxPoint x="620" y="325" as="targetPoint" />
          </mxGeometry>
        </mxCell>
        <mxCell id="1M9QhqLZfWZT7avfSer1-62" value="" style="endArrow=none;dashed=1;html=1;rounded=0;entryX=0.5;entryY=1;entryDx=0;entryDy=0;exitX=0.5;exitY=0;exitDx=0;exitDy=0;" edge="1" parent="1" source="1M9QhqLZfWZT7avfSer1-68" target="1M9QhqLZfWZT7avfSer1-56">
          <mxGeometry width="50" height="50" relative="1" as="geometry">
            <mxPoint x="700" y="370" as="sourcePoint" />
            <mxPoint x="650" y="365" as="targetPoint" />
          </mxGeometry>
        </mxCell>
        <mxCell id="1M9QhqLZfWZT7avfSer1-63" value="" style="endArrow=none;dashed=1;html=1;rounded=0;entryX=1;entryY=0.5;entryDx=0;entryDy=0;exitX=0.5;exitY=0;exitDx=0;exitDy=0;" edge="1" parent="1" source="1M9QhqLZfWZT7avfSer1-69" target="1M9QhqLZfWZT7avfSer1-57">
          <mxGeometry width="50" height="50" relative="1" as="geometry">
            <mxPoint x="730" y="510" as="sourcePoint" />
            <mxPoint x="610" y="315" as="targetPoint" />
          </mxGeometry>
        </mxCell>
        <mxCell id="1M9QhqLZfWZT7avfSer1-64" value="" style="endArrow=none;dashed=1;html=1;rounded=0;entryX=0.5;entryY=1;entryDx=0;entryDy=0;exitX=0.5;exitY=0;exitDx=0;exitDy=0;" edge="1" parent="1" source="1M9QhqLZfWZT7avfSer1-70" target="1M9QhqLZfWZT7avfSer1-58">
          <mxGeometry width="50" height="50" relative="1" as="geometry">
            <mxPoint x="680" y="610" as="sourcePoint" />
            <mxPoint x="620" y="325" as="targetPoint" />
          </mxGeometry>
        </mxCell>
        <mxCell id="1M9QhqLZfWZT7avfSer1-65" value="" style="endArrow=none;dashed=1;html=1;rounded=0;entryX=1;entryY=0.5;entryDx=0;entryDy=0;exitX=0;exitY=0.5;exitDx=0;exitDy=0;" edge="1" parent="1" source="1M9QhqLZfWZT7avfSer1-58" target="BajUrXFmIZBp0bTx__w6-6">
          <mxGeometry width="50" height="50" relative="1" as="geometry">
            <mxPoint x="645" y="265" as="sourcePoint" />
            <mxPoint x="475" y="180" as="targetPoint" />
            <Array as="points">
              <mxPoint x="400" y="110" />
            </Array>
          </mxGeometry>
        </mxCell>
        <mxCell id="1M9QhqLZfWZT7avfSer1-66" value="" style="endArrow=none;dashed=1;html=1;rounded=0;entryX=1;entryY=0.5;entryDx=0;entryDy=0;exitX=0;exitY=0.5;exitDx=0;exitDy=0;" edge="1" parent="1" source="1M9QhqLZfWZT7avfSer1-57" target="BajUrXFmIZBp0bTx__w6-6">
          <mxGeometry width="50" height="50" relative="1" as="geometry">
            <mxPoint x="530" y="435" as="sourcePoint" />
            <mxPoint x="310" y="105" as="targetPoint" />
            <Array as="points" />
          </mxGeometry>
        </mxCell>
        <mxCell id="1M9QhqLZfWZT7avfSer1-67" value="" style="endArrow=none;dashed=1;html=1;rounded=0;entryX=1;entryY=0.5;entryDx=0;entryDy=0;exitX=0;exitY=0.5;exitDx=0;exitDy=0;" edge="1" parent="1" source="1M9QhqLZfWZT7avfSer1-56" target="BajUrXFmIZBp0bTx__w6-6">
          <mxGeometry width="50" height="50" relative="1" as="geometry">
            <mxPoint x="530" y="375" as="sourcePoint" />
            <mxPoint x="310" y="105" as="targetPoint" />
            <Array as="points" />
          </mxGeometry>
        </mxCell>
        <mxCell id="1M9QhqLZfWZT7avfSer1-68" value="Hapus PT" style="ellipse;whiteSpace=wrap;html=1;" vertex="1" parent="1">
          <mxGeometry x="590" y="220" width="80" height="50" as="geometry" />
        </mxCell>
        <mxCell id="1M9QhqLZfWZT7avfSer1-69" value="Hapus Mandor" style="ellipse;whiteSpace=wrap;html=1;" vertex="1" parent="1">
          <mxGeometry x="540.5" y="280" width="80" height="50" as="geometry" />
        </mxCell>
        <mxCell id="1M9QhqLZfWZT7avfSer1-70" value="Hapus Peternak" style="ellipse;whiteSpace=wrap;html=1;" vertex="1" parent="1">
          <mxGeometry x="470" y="320" width="80" height="50" as="geometry" />
        </mxCell>
        <mxCell id="1M9QhqLZfWZT7avfSer1-71" value="&amp;lt;&amp;lt;include&amp;gt;&amp;gt;" style="text;html=1;align=center;verticalAlign=middle;resizable=0;points=[];autosize=1;strokeColor=none;fillColor=none;" vertex="1" parent="1">
          <mxGeometry x="340" y="1000" width="90" height="30" as="geometry" />
        </mxCell>
        <mxCell id="1M9QhqLZfWZT7avfSer1-72" value="&amp;lt;&amp;lt;extend&amp;gt;&amp;gt;" style="text;html=1;align=center;verticalAlign=middle;resizable=0;points=[];autosize=1;strokeColor=none;fillColor=none;" vertex="1" parent="1">
          <mxGeometry x="560" y="85" width="90" height="30" as="geometry" />
        </mxCell>
        <mxCell id="1M9QhqLZfWZT7avfSer1-73" value="&amp;lt;&amp;lt;extend&amp;gt;&amp;gt;" style="text;html=1;align=center;verticalAlign=middle;resizable=0;points=[];autosize=1;strokeColor=none;fillColor=none;" vertex="1" parent="1">
          <mxGeometry x="510" y="170" width="90" height="30" as="geometry" />
        </mxCell>
        <mxCell id="1M9QhqLZfWZT7avfSer1-74" value="&amp;lt;&amp;lt;extend&amp;gt;&amp;gt;" style="text;html=1;align=center;verticalAlign=middle;resizable=0;points=[];autosize=1;strokeColor=none;fillColor=none;" vertex="1" parent="1">
          <mxGeometry x="450.5" y="250" width="90" height="30" as="geometry" />
        </mxCell>
        <mxCell id="1M9QhqLZfWZT7avfSer1-77" value="&amp;lt;&amp;lt;include&amp;gt;&amp;gt;" style="text;html=1;align=center;verticalAlign=middle;resizable=0;points=[];autosize=1;strokeColor=none;fillColor=none;" vertex="1" parent="1">
          <mxGeometry x="340" y="940" width="90" height="30" as="geometry" />
        </mxCell>
        <mxCell id="1M9QhqLZfWZT7avfSer1-78" value="&amp;lt;&amp;lt;include&amp;gt;&amp;gt;" style="text;html=1;align=center;verticalAlign=middle;resizable=0;points=[];autosize=1;strokeColor=none;fillColor=none;" vertex="1" parent="1">
          <mxGeometry x="340" y="880" width="90" height="30" as="geometry" />
        </mxCell>
        <mxCell id="1M9QhqLZfWZT7avfSer1-79" value="&amp;lt;&amp;lt;include&amp;gt;&amp;gt;" style="text;html=1;align=center;verticalAlign=middle;resizable=0;points=[];autosize=1;strokeColor=none;fillColor=none;" vertex="1" parent="1">
          <mxGeometry x="340" y="820" width="90" height="30" as="geometry" />
        </mxCell>
        <mxCell id="1M9QhqLZfWZT7avfSer1-80" value="&amp;lt;&amp;lt;include&amp;gt;&amp;gt;" style="text;html=1;align=center;verticalAlign=middle;resizable=0;points=[];autosize=1;strokeColor=none;fillColor=none;" vertex="1" parent="1">
          <mxGeometry x="340" y="760" width="90" height="30" as="geometry" />
        </mxCell>
        <mxCell id="1M9QhqLZfWZT7avfSer1-81" value="&amp;lt;&amp;lt;include&amp;gt;&amp;gt;" style="text;html=1;align=center;verticalAlign=middle;resizable=0;points=[];autosize=1;strokeColor=none;fillColor=none;" vertex="1" parent="1">
          <mxGeometry x="340" y="700" width="90" height="30" as="geometry" />
        </mxCell>
        <mxCell id="1M9QhqLZfWZT7avfSer1-82" value="&amp;lt;&amp;lt;include&amp;gt;&amp;gt;" style="text;html=1;align=center;verticalAlign=middle;resizable=0;points=[];autosize=1;strokeColor=none;fillColor=none;" vertex="1" parent="1">
          <mxGeometry x="340" y="640" width="90" height="30" as="geometry" />
        </mxCell>
        <mxCell id="1M9QhqLZfWZT7avfSer1-83" value="&amp;lt;&amp;lt;include&amp;gt;&amp;gt;" style="text;html=1;align=center;verticalAlign=middle;resizable=0;points=[];autosize=1;strokeColor=none;fillColor=none;" vertex="1" parent="1">
          <mxGeometry x="340" y="580" width="90" height="30" as="geometry" />
        </mxCell>
        <mxCell id="1M9QhqLZfWZT7avfSer1-84" value="&amp;lt;&amp;lt;include&amp;gt;&amp;gt;" style="text;html=1;align=center;verticalAlign=middle;resizable=0;points=[];autosize=1;strokeColor=none;fillColor=none;" vertex="1" parent="1">
          <mxGeometry x="340" y="520" width="90" height="30" as="geometry" />
        </mxCell>
        <mxCell id="1M9QhqLZfWZT7avfSer1-85" value="&amp;lt;&amp;lt;include&amp;gt;&amp;gt;" style="text;html=1;align=center;verticalAlign=middle;resizable=0;points=[];autosize=1;strokeColor=none;fillColor=none;" vertex="1" parent="1">
          <mxGeometry x="340" y="460" width="90" height="30" as="geometry" />
        </mxCell>
        <mxCell id="1M9QhqLZfWZT7avfSer1-86" value="&amp;lt;&amp;lt;include&amp;gt;&amp;gt;" style="text;html=1;align=center;verticalAlign=middle;resizable=0;points=[];autosize=1;strokeColor=none;fillColor=none;" vertex="1" parent="1">
          <mxGeometry x="340" y="400" width="90" height="30" as="geometry" />
        </mxCell>
        <mxCell id="1M9QhqLZfWZT7avfSer1-87" value="&amp;lt;&amp;lt;include&amp;gt;&amp;gt;" style="text;html=1;align=center;verticalAlign=middle;resizable=0;points=[];autosize=1;strokeColor=none;fillColor=none;" vertex="1" parent="1">
          <mxGeometry x="340" y="340" width="90" height="30" as="geometry" />
        </mxCell>
        <mxCell id="1M9QhqLZfWZT7avfSer1-88" value="&amp;lt;&amp;lt;include&amp;gt;&amp;gt;" style="text;html=1;align=center;verticalAlign=middle;resizable=0;points=[];autosize=1;strokeColor=none;fillColor=none;" vertex="1" parent="1">
          <mxGeometry x="340" y="280" width="90" height="30" as="geometry" />
        </mxCell>
        <mxCell id="1M9QhqLZfWZT7avfSer1-89" value="&amp;lt;&amp;lt;include&amp;gt;&amp;gt;" style="text;html=1;align=center;verticalAlign=middle;resizable=0;points=[];autosize=1;strokeColor=none;fillColor=none;" vertex="1" parent="1">
          <mxGeometry x="340" y="220" width="90" height="30" as="geometry" />
        </mxCell>
        <mxCell id="1M9QhqLZfWZT7avfSer1-90" value="&amp;lt;&amp;lt;include&amp;gt;&amp;gt;" style="text;html=1;align=center;verticalAlign=middle;resizable=0;points=[];autosize=1;strokeColor=none;fillColor=none;" vertex="1" parent="1">
          <mxGeometry x="310" y="170" width="90" height="30" as="geometry" />
        </mxCell>
        <mxCell id="1M9QhqLZfWZT7avfSer1-91" value="&amp;lt;&amp;lt;include&amp;gt;&amp;gt;" style="text;html=1;align=center;verticalAlign=middle;resizable=0;points=[];autosize=1;strokeColor=none;fillColor=none;" vertex="1" parent="1">
          <mxGeometry x="290" y="120" width="90" height="30" as="geometry" />
        </mxCell>
        <mxCell id="1M9QhqLZfWZT7avfSer1-92" value="&amp;lt;&amp;lt;include&amp;gt;&amp;gt;" style="text;html=1;align=center;verticalAlign=middle;resizable=0;points=[];autosize=1;strokeColor=none;fillColor=none;" vertex="1" parent="1">
          <mxGeometry x="370" y="95" width="90" height="30" as="geometry" />
        </mxCell>
        <mxCell id="1M9QhqLZfWZT7avfSer1-93" value="&amp;lt;&amp;lt;include&amp;gt;&amp;gt;" style="text;html=1;align=center;verticalAlign=middle;resizable=0;points=[];autosize=1;strokeColor=none;fillColor=none;" vertex="1" parent="1">
          <mxGeometry x="369" y="65" width="90" height="30" as="geometry" />
        </mxCell>
        <mxCell id="1M9QhqLZfWZT7avfSer1-94" value="&amp;lt;&amp;lt;include&amp;gt;&amp;gt;" style="text;html=1;align=center;verticalAlign=middle;resizable=0;points=[];autosize=1;strokeColor=none;fillColor=none;" vertex="1" parent="1">
          <mxGeometry x="470" y="20" width="90" height="30" as="geometry" />
        </mxCell>
      </root>
    </mxGraphModel>
  </diagram>
</mxfile>
